<svg width="60" height="60" viewBox="0 0 60 60" fill="none" xmlns="http://www.w3.org/2000/svg">
<g clip-path="url(#clip0_450_11557)">
<mask id="mask0_450_11557" style="mask-type:luminance" maskUnits="userSpaceOnUse" x="9" y="9" width="42" height="42">
<path d="M9.23047 9.2301H50.7689V50.7686H9.23047V9.2301Z" fill="white"/>
</mask>
<g mask="url(#mask0_450_11557)">
<path fill-rule="evenodd" clip-rule="evenodd" d="M18.9663 47.7033C17.0745 47.7033 15.5409 46.1696 15.5409 44.2778C15.5409 42.386 17.0745 40.8523 18.9663 40.8523H40.9525C44.4375 40.8523 47.2626 38.0272 47.2626 34.5422V15.7201C47.2626 12.2351 44.4375 9.41001 40.9525 9.41001H18.9663C15.4814 9.41001 12.6562 12.2351 12.6562 15.7201V44.2778C12.6562 47.7628 15.4814 50.5879 18.9663 50.5879H40.9525C44.4375 50.5879 47.2626 47.7628 47.2626 44.2778C47.2626 43.4812 46.6169 42.8355 45.8203 42.8355C45.0237 42.8355 44.378 43.4812 44.378 44.2778C44.378 46.1696 42.8444 47.7033 40.9525 47.7033H18.9663ZM15.5409 38.9775V15.7201C15.5409 13.8283 17.0745 12.2946 18.9663 12.2946H40.9525C42.8444 12.2946 44.378 13.8283 44.378 15.7201V34.5422C44.378 36.4341 42.8444 37.9677 40.9525 37.9677H18.9663C17.7035 37.9677 16.5274 38.3386 15.5409 38.9775Z" fill="black"/>
<path d="M25.4922 32.3068V19.2539H34.5246V21.7599H28.5571V24.5183H34.0559V27.0243H28.5571V29.8008H34.5427V32.3068H25.4922Z" fill="#0082FF"/>
</g>
</g>
<defs>
<clipPath id="clip0_450_11557">
<rect width="41.5385" height="41.5385" fill="white" transform="translate(9.23047 9.23047)"/>
</clipPath>
</defs>
</svg>
